<?xml version="1.0" standalone="no"?>
<!DOCTYPE svg PUBLIC "-//W3C//DTD SVG 1.1//EN" "http://www.w3.org/Graphics/SVG/1.1/DTD/svg11.dtd" >
<svg xmlns="http://www.w3.org/2000/svg" xmlns:xlink="http://www.w3.org/1999/xlink" version="1.1">
<metadata></metadata>
<defs>
<font id="flama_semicondensedblack_low" horiz-adv-x="1105" >
<font-face units-per-em="2048" ascent="1638" descent="-410" />
<missing-glyph horiz-adv-x="368" />
<glyph unicode="&#xfb01;" horiz-adv-x="1400" d="M72 772v315h125v111q0 79 30 140.5t80 97.5t110.5 54.5t127.5 18.5q150 0 235 -28v-275q-69 11 -114 11q-80 0 -80 -52v-78h151v-315h-151v-772h-389v772h-125zM911 0v1106h392v-1106h-392zM911 1208v330h392v-330h-392z" />
<glyph unicode="&#xfb02;" horiz-adv-x="1484" d="M72 772v315h125v111q0 79 30 140.5t80 97.5t110.5 54.5t127.5 18.5q150 0 235 -28v-275q-69 11 -114 11q-80 0 -80 -52v-78h151v-315h-151v-772h-389v772h-125zM903 254v1206h393v-1081q0 -34 14 -51t56 -17q30 0 70 6v-305q-110 -35 -211 -35q-151 0 -236.5 72.5 t-85.5 204.5z" />
<glyph horiz-adv-x="0" />
<glyph horiz-adv-x="0" />
<glyph horiz-adv-x="682" />
<glyph unicode=" "  horiz-adv-x="368" />
<glyph unicode="&#x09;" horiz-adv-x="368" />
<glyph unicode="&#xa0;" horiz-adv-x="368" />
<glyph unicode="!" horiz-adv-x="593" d="M106 932v528h381v-528l-71 -455h-236zM117 0v383h360v-383h-360z" />
<glyph unicode="&#x22;" horiz-adv-x="985" d="M113 1159v301h319v-301l-47 -362h-225zM553 1159v301h319v-301l-45 -362h-227z" />
<glyph unicode="#" horiz-adv-x="1167" d="M37 344l31 219h204l50 367h-218l29 215h209l41 319h195l-35 -319h198l39 319h195l-39 -319h205l-25 -215h-205l-45 -367h211l-24 -219h-215l-41 -346h-195l39 346h-199l-45 -346h-192l43 346h-211zM469 563h199l49 367h-203z" />
<glyph unicode="$" horiz-adv-x="1112" d="M25 248l211 235q59 -59 154 -109t173 -50q129 0 129 79q0 13 -4.5 24.5t-15 21.5t-19.5 17t-26 15t-27 12.5t-30 12t-27 10.5l-205 82q-122 49 -196 143.5t-74 227.5q0 153 93.5 256.5t252.5 142.5v139h293v-131q204 -31 331 -155l-200 -236q-71 53 -142.5 85t-122.5 32 q-112 0 -112 -74q0 -38 34 -61t106 -52q7 -3 11 -4l170 -67q141 -52 211 -151t70 -228q0 -163 -102 -269t-254 -141v-137h-293v129q-249 36 -389 201z" />
<glyph unicode="%" horiz-adv-x="1660" d="M78 920v292q0 88 46.5 151.5t115.5 92.5t149 29q59 0 115 -17.5t101.5 -51t73.5 -88t28 -122.5v-286q0 -84 -49 -148t-119 -94.5t-144 -30.5q-58 0 -113 17t-101.5 49.5t-74.5 86t-28 120.5zM326 901q0 -24 17 -40.5t50 -16.5t48.5 17.5t15.5 43.5v330q0 23 -18 39 t-48 16q-31 0 -48 -16t-17 -39v-334zM375 -4l727 1474h194l-727 -1474h-194zM954 250v280q0 88 47 154.5t117.5 98.5t149.5 32q59 0 114.5 -17.5t100.5 -50.5t72.5 -87.5t27.5 -122.5v-279q0 -84 -48.5 -150t-118.5 -98.5t-144 -32.5q-58 0 -113.5 17t-101.5 50t-74.5 86.5 t-28.5 119.5zM1204 231q0 -24 16.5 -40.5t49.5 -16.5q32 0 47.5 18.5t15.5 43.5v329q0 23 -17 39.5t-46 16.5q-31 0 -48.5 -16.5t-17.5 -39.5v-334z" />
<glyph unicode="&#x26;" horiz-adv-x="1476" d="M78 383q0 149 85 259t216 167q-48 62 -81.5 140t-33.5 147q0 79 26.5 147.5t79 123.5t141 86.5t202.5 31.5q192 0 310 -93t118 -259q0 -128 -70 -226t-188 -155l149 -199q18 45 39 176l303 -39q-16 -116 -66 -233t-87 -156l227 -301h-461l-82 111q-160 -144 -393 -144 q-197 0 -315.5 106t-118.5 310zM459 451q0 -69 40 -116.5t115 -47.5q69 0 123 47l-202 268q-76 -62 -76 -151zM637 1124q0 -56 84 -153q40 14 66 56.5t26 98.5q0 41 -23.5 68t-60.5 27q-47 0 -69.5 -30.5t-22.5 -66.5z" />
<glyph unicode="'" horiz-adv-x="544" d="M113 1159v301h319v-301l-47 -362h-225z" />
<glyph unicode="(" horiz-adv-x="645" d="M102 569q0 251 80.5 493t216.5 415l222 -4q-100 -269 -138.5 -454.5t-38.5 -449.5q0 -452 177 -925l-222 -4q-131 169 -214 421t-83 508z" />
<glyph unicode=")" horiz-adv-x="645" d="M25 -356q176 470 176 925q0 265 -38 450.5t-138 453.5l221 4q136 -173 216.5 -415t80.5 -493q0 -256 -83 -508t-214 -421z" />
<glyph unicode="*" horiz-adv-x="937" d="M41 1155l104 170l220 -119v254h208v-256l218 121l106 -170l-254 -139l168 -236l-174 -108l-168 235l-170 -235l-172 108l164 236z" />
<glyph unicode="+" d="M102 532v234h334v354h234v-354h334v-234h-334v-354h-234v354h-334z" />
<glyph unicode="," horiz-adv-x="540" d="M90 23v360h361v-338l-119 -326h-182l71 304h-131z" />
<glyph unicode="-" horiz-adv-x="684" d="M74 492v278h536v-278h-536z" />
<glyph unicode="." horiz-adv-x="540" d="M90 0v383h361v-383h-361z" />
<glyph unicode="/" horiz-adv-x="684" d="M-29 -367l430 1837h244l-426 -1837h-248z" />
<glyph unicode="0" horiz-adv-x="1200" d="M82 406v645q0 113 44 199t119 136t164 74.5t189 24.5q78 0 151 -15t141 -49t118 -84t80 -126t30 -169v-636q0 -90 -30 -163.5t-80 -122t-117 -82t-139 -48.5t-148 -15q-79 0 -151.5 14t-141 46.5t-118.5 81t-80.5 123t-30.5 166.5zM485 403q0 -41 31 -70.5t86 -29.5 q56 0 84.5 31.5t28.5 73.5v655q0 40 -31.5 66t-83.5 26q-51 0 -83 -26.5t-32 -65.5v-660z" />
<glyph unicode="1" horiz-adv-x="808" d="M72 1374l358 90h207v-1464h-397v1096l-138 -25z" />
<glyph unicode="2" horiz-adv-x="1140" d="M59 1010v57q0 200 142.5 310t378.5 110q126 0 220.5 -34t150.5 -94t83 -136t27 -166q0 -238 -348 -602l-88 -103v-6h430v-346h-977v231l342 416q221 272 221 373v22q0 46 -22.5 78.5t-69.5 32.5q-59 0 -79.5 -33t-20.5 -92v-18h-390z" />
<glyph unicode="3" horiz-adv-x="1175" d="M78 383v59h389v-30q0 -57 30.5 -92t90.5 -35q114 0 114 143q0 36 -13.5 62.5t-32.5 41t-45 23.5t-45 11.5t-38 2.5h-118v318h106q40 0 64 4t48 17t35 42t11 76q0 58 -27.5 92.5t-77.5 34.5q-57 0 -81.5 -35t-24.5 -84v-24h-377v55q0 191 139 305.5t373 114.5 q225 0 355 -104t130 -310q0 -118 -65 -204.5t-168 -121.5v-10q124 -31 192 -117t68 -196q0 -113 -42.5 -201t-115.5 -140.5t-163.5 -79t-194.5 -26.5q-244 0 -380 106t-136 302z" />
<glyph unicode="4" horiz-adv-x="1271" d="M100 270v303l457 887h467l-526 -868h196v143l371 230v-373h106v-322h-106v-270h-371v270h-594z" />
<glyph unicode="5" horiz-adv-x="1179" d="M74 338v104h393v-49q0 -44 29.5 -76t91.5 -32q58 0 86 35t28 92v145q0 47 -30 76t-84 29q-60 0 -109 -60l-379 51l47 807h879v-350h-547l-14 -254q42 47 120 73.5t158 26.5q70 0 130 -17.5t111 -54.5t80.5 -104t29.5 -157v-217q0 -106 -41.5 -190t-113 -136t-162 -78.5 t-193.5 -26.5q-146 0 -259.5 40.5t-182 123.5t-68.5 199z" />
<glyph unicode="6" horiz-adv-x="1220" d="M88 428v592q0 116 42.5 206.5t116.5 146t168.5 84t202.5 28.5q224 0 366 -107.5t142 -285.5v-70h-407v49q0 48 -27.5 75.5t-79.5 27.5q-53 0 -82.5 -31t-29.5 -80v-250q105 117 293 117q159 0 249.5 -94t90.5 -234v-229q0 -123 -75 -215.5t-194 -137.5t-262 -45 q-106 0 -197 27t-163 80.5t-113 142.5t-41 203zM500 408q0 -48 30 -79.5t82 -31.5q54 0 88.5 33.5t34.5 75.5v159q0 50 -34.5 73.5t-77.5 23.5q-28 0 -54 -9.5t-47.5 -38t-21.5 -73.5v-133z" />
<glyph unicode="7" horiz-adv-x="1146" d="M68 1108v352h1013v-299q-188 -257 -280.5 -540t-91.5 -621h-445q2 160 39 333.5t94.5 319t124.5 264.5t133 191h-587z" />
<glyph unicode="8" horiz-adv-x="1208" d="M80 358v113q0 87 46.5 156t115.5 108q-61 30 -101.5 98.5t-40.5 135.5v123q0 122 69 212.5t181 135.5t250 45q104 0 195 -24.5t160.5 -72t110 -122.5t40.5 -170v-117q0 -79 -39 -143.5t-100 -102.5q66 -33 113.5 -101.5t47.5 -146.5v-137q0 -117 -71.5 -203t-188.5 -128 t-262 -42q-114 0 -206.5 21t-165.5 65t-113.5 119.5t-40.5 177.5zM489 379q0 -43 31.5 -67.5t83.5 -24.5q55 0 86 24.5t31 69.5v125q0 51 -34 75.5t-85 24.5q-47 0 -80 -22.5t-33 -61.5v-143zM489 954q0 -43 30.5 -66.5t84.5 -23.5q55 0 86 24.5t31 69.5v115q0 52 -34 76.5 t-85 24.5q-48 0 -80.5 -21.5t-32.5 -62.5v-136z" />
<glyph unicode="9" horiz-adv-x="1212" d="M88 874v187q0 134 69 231.5t182.5 145t256.5 47.5q232 0 380 -112t148 -308v-637q0 -205 -146 -328t-378 -123q-227 0 -365.5 99.5t-138.5 277.5v86h398v-51q0 -46 29.5 -73t76.5 -27q53 0 83 29.5t30 76.5v262q-56 -65 -122 -95t-153 -30q-167 0 -258.5 88.5 t-91.5 253.5zM483 901q0 -50 35 -74t78 -24q45 0 81 30.5t36 96.5v135q0 45 -30 72.5t-83 27.5q-55 0 -86 -28t-31 -70v-166z" />
<glyph unicode=":" horiz-adv-x="540" d="M90 0v383h361v-383h-361zM90 729v383h361v-383h-361z" />
<glyph unicode=";" horiz-adv-x="540" d="M90 23v360h361v-338l-119 -326h-182l71 304h-131zM90 729v383h361v-383h-361z" />
<glyph unicode="&#x3c;" d="M104 563v176l787 377l104 -211l-538 -254l542 -254l-106 -209z" />
<glyph unicode="=" d="M102 313v236h902v-236h-902zM102 723v235h902v-235h-902z" />
<glyph unicode="&#x3e;" d="M106 399l541 254l-536 252l104 211l784 -377v-176l-788 -373z" />
<glyph unicode="?" horiz-adv-x="1060" d="M74 999v66q0 127 62.5 223t165.5 144.5t230 48.5q223 0 346 -109t123 -299q0 -114 -47 -195t-129 -149q-9 -8 -49 -39.5t-58 -48.5t-37 -50t-19 -67v-47h-349v45q0 89 29 155.5t88 127.5q14 15 47 45.5t51 50t40.5 48t33 58t10.5 60.5q0 45 -27 71.5t-77 26.5t-76 -28.5 t-26 -79.5v-58h-332zM297 0v383h391v-383h-391z" />
<glyph unicode="@" horiz-adv-x="1818" d="M82 565q0 200 71.5 370.5t194.5 287t291 182t358 65.5q144 0 275.5 -43.5t236.5 -125t167.5 -210.5t62.5 -288q0 -148 -65 -286.5t-174 -233t-236 -123.5h-318l21 108h-9q-117 -131 -264 -131q-115 0 -182.5 59.5t-67.5 178.5q0 32 7 76q8 42 26 146.5t33 186.5 q23 134 122.5 214.5t229.5 80.5q63 0 124.5 -22t92.5 -68h2l11 72h323l-123 -742q115 52 193 181t78 291q0 139 -49 245t-133 168t-187 92.5t-221 30.5q-137 0 -253.5 -40.5t-199.5 -111.5t-141 -167.5t-86.5 -209.5t-28.5 -237q0 -220 92 -367.5t260 -218.5 q155 -67 363 -67q100 0 197 12.5t160 27.5t173 44l43 -135q-108 -49 -266 -78t-301 -29q-300 0 -512 111q-185 95 -288 270t-103 434zM784 471q0 -40 21 -65t61 -25q54 0 88.5 37t44.5 94l39 225q2 8 2 29q0 42 -26.5 66t-67.5 24q-51 0 -83 -38t-40 -93l-35 -219 q-4 -16 -4 -35z" />
<glyph unicode="A" horiz-adv-x="1415" d="M25 0l419 1462h537l410 -1462h-435l-61 246h-420l-61 -246h-389zM561 565h250l-123 488h-6z" />
<glyph unicode="B" horiz-adv-x="1331" d="M102 0v1460h725q196 0 307 -100.5t111 -267.5q0 -124 -64.5 -218.5t-172.5 -128.5v-6q110 -31 178.5 -124t70.5 -212q0 -177 -112.5 -290t-306.5 -113h-736zM522 324h178q58 0 92.5 38.5t34.5 96.5q0 57 -36.5 90t-96.5 33h-172v-258zM522 885h172q63 0 97 38.5t34 100.5 q0 53 -34.5 85t-92.5 32h-176v-256z" />
<glyph unicode="C" horiz-adv-x="1294" d="M86 477v498q0 121 48.5 220t130 161t184.5 95.5t217 33.5q118 0 217.5 -28.5t175.5 -84t119 -146t43 -206.5v-109h-390v86q0 70 -46.5 109t-110.5 39q-76 0 -119 -40.5t-43 -117.5v-506q0 -79 41.5 -122.5t120.5 -43.5q64 0 110.5 39t46.5 109v86h390v-111 q0 -153 -74 -259t-196.5 -155t-282.5 -49q-93 0 -176.5 17.5t-158.5 56t-129 96t-86 142.5t-32 190z" />
<glyph unicode="D" horiz-adv-x="1327" d="M102 0v1460h592q116 0 213 -27t173 -81t118.5 -143t42.5 -205v-521q0 -125 -43 -220t-119 -151t-172 -84t-211 -28h-594zM524 336h133q78 0 118 47.5t40 114.5v467q0 71 -44.5 114t-121.5 43h-125v-786z" />
<glyph unicode="E" horiz-adv-x="1198" d="M102 0v1460h1012v-334h-590v-223h467v-334h-467v-233h592v-336h-1014z" />
<glyph unicode="F" horiz-adv-x="1175" d="M102 0v1460h1012v-334h-590v-243h467v-336h-467v-547h-422z" />
<glyph unicode="G" horiz-adv-x="1306" d="M86 477v516q0 97 31.5 179t86.5 139t129 96.5t158 58.5t175 19q84 0 160.5 -13.5t149.5 -45t126 -79.5t85 -122t32 -166v-107h-390v45q0 71 -42 109.5t-105 38.5q-77 0 -123.5 -42t-46.5 -118v-504q0 -80 42 -128t120 -48q149 0 149 144v73h-198v291h594v-401 q0 -91 -31.5 -166t-84 -124.5t-124 -83t-149.5 -48.5t-162 -15q-93 0 -177 17.5t-158.5 56t-129 96t-86 142.5t-31.5 190z" />
<glyph unicode="H" horiz-adv-x="1359" d="M102 0v1460h422v-540h312v540h421v-1460h-421v551h-312v-551h-422z" />
<glyph unicode="I" horiz-adv-x="626" d="M102 0v1460h422v-1460h-422z" />
<glyph unicode="J" horiz-adv-x="1247" d="M53 449v94h416v-82q0 -65 30 -108.5t103 -43.5q65 0 95 42t30 104v1005h422v-979q0 -238 -143 -372t-394 -134q-274 0 -416.5 111t-142.5 363z" />
<glyph unicode="K" horiz-adv-x="1331" d="M102 0v1460h422v-635l365 635h409l-346 -577l351 -883h-457l-211 571l-111 -157v-414h-422z" />
<glyph unicode="L" horiz-adv-x="1181" d="M102 0v1460h422v-1124h592v-336h-1014z" />
<glyph unicode="M" horiz-adv-x="1617" d="M102 0v1460h541l178 -569h6l179 569h510v-1460h-369v911h-4l-195 -651h-274l-199 651h-6v-911h-367z" />
<glyph unicode="N" horiz-adv-x="1384" d="M102 0v1460h414l383 -639h4v639h379v-1460h-352l-445 729h-4v-729h-379z" />
<glyph unicode="O" horiz-adv-x="1347" d="M86 494v469q0 104 31 190.5t85 147t128 102.5t159.5 62t180.5 20t179.5 -17t161 -56.5t131.5 -99t87.5 -148.5t32.5 -201v-467q0 -109 -32.5 -197.5t-88 -148t-131.5 -99.5t-160 -58t-176 -18q-97 0 -181.5 17t-160.5 56t-129.5 97.5t-85 147.5t-31.5 201zM512 492 q0 -84 41.5 -129.5t122.5 -45.5q74 0 117 45t43 123v492q0 80 -47 123t-117 43q-160 0 -160 -166v-485z" />
<glyph unicode="P" horiz-adv-x="1292" d="M102 0v1460h637q118 0 210 -36t149.5 -101t86.5 -150t29 -186q0 -105 -27 -195t-82.5 -161.5t-149.5 -112.5t-218 -41h-213v-477h-422zM524 793h138q67 0 104 48.5t37 127.5q0 76 -35.5 121t-103.5 45h-140v-342z" />
<glyph unicode="Q" horiz-adv-x="1347" d="M86 494v469q0 104 31 190.5t85 147t128 102.5t159.5 62t180.5 20t179.5 -17t161 -56.5t131.5 -99t87.5 -148.5t32.5 -201v-467q0 -201 -111 -332l186 -94l-264 -320l-325 230q-62 -5 -74 -5q-97 0 -181.5 17t-160.5 56t-129.5 97.5t-85 147.5t-31.5 201zM512 492 q0 -84 41.5 -129.5t122.5 -45.5q74 0 117 45t43 123v492q0 80 -47 123t-117 43q-160 0 -160 -166v-485z" />
<glyph unicode="R" horiz-adv-x="1333" d="M102 0v1460h639q248 0 377 -125t129 -334q0 -302 -223 -419l264 -582h-461l-184 506h-119v-506h-422zM524 801h164q70 0 108 43.5t38 124.5q0 75 -37.5 120.5t-106.5 45.5h-166v-334z" />
<glyph unicode="S" horiz-adv-x="1259" d="M33 182l215 264q71 -62 165 -106.5t181 -44.5q61 0 103 27t42 71q0 43 -33.5 67.5t-99.5 49.5l-192 74q-312 121 -312 424q0 199 150 337t391 138q342 0 518 -168l-198 -268q-63 52 -151.5 90.5t-156.5 38.5t-106.5 -28t-38.5 -75q0 -21 10.5 -37t33 -29.5t42.5 -22 t55 -21.5t54 -21l159 -70q324 -142 324 -419q0 -121 -51 -215.5t-136 -150t-186.5 -84t-212.5 -28.5q-170 0 -319 51.5t-250 155.5z" />
<glyph unicode="T" horiz-adv-x="1232" d="M41 1126v334h1151v-334h-363v-1126h-426v1126h-362z" />
<glyph unicode="U" horiz-adv-x="1343" d="M94 483v977h422v-964q0 -90 46.5 -137.5t121.5 -47.5q70 0 114 49.5t44 135.5v964h407v-948q0 -257 -153.5 -397t-419.5 -140q-277 0 -429.5 126t-152.5 382z" />
<glyph unicode="V" horiz-adv-x="1290" d="M29 1460h434l207 -897h8l196 897h388l-394 -1462h-446z" />
<glyph unicode="W" horiz-adv-x="1847" d="M25 1460h413l152 -764h6l160 764h383l147 -764h2l150 764h385l-322 -1462h-397l-178 821h-11l-184 -821h-385z" />
<glyph unicode="X" horiz-adv-x="1325" d="M25 0l383 748l-359 712h455l182 -395l174 395h416l-361 -710l385 -750h-454l-203 428l-203 -428h-415z" />
<glyph unicode="Y" horiz-adv-x="1300" d="M16 1460h447l217 -528l209 528h395l-422 -899v-561h-424v563z" />
<glyph unicode="Z" horiz-adv-x="1214" d="M90 0v250l549 876h-549v334h1043v-291l-521 -833h516v-336h-1038z" />
<glyph unicode="[" horiz-adv-x="636" d="M135 -360v1820h434v-209h-120v-1407h118v-204h-432z" />
<glyph unicode="\" horiz-adv-x="684" d="M39 1470h244l430 -1837h-248z" />
<glyph unicode="]" horiz-adv-x="636" d="M68 1251v209h434v-1820h-432v204h116v1407h-118z" />
<glyph unicode="^" d="M184 272l248 973h262l228 -973h-234l-131 656l-139 -656h-234z" />
<glyph unicode="_" horiz-adv-x="944" d="M0 -72h944v-241h-944v241z" />
<glyph unicode="`" horiz-adv-x="643" d="M43 1548h373l170 -334h-281z" />
<glyph unicode="a" horiz-adv-x="1157" d="M74 297q0 82 33 147.5t85.5 106.5t123 68t139.5 38t141 11h76v98q0 44 -29 71t-86 27q-60 0 -84 -33t-24 -75v-33h-349v51q0 108 66.5 190t177 124t246.5 42q96 0 180 -23.5t150 -69.5t104.5 -121.5t38.5 -172.5v-495q0 -50 4 -108.5t8 -97.5t4 -42h-362q-9 45 -19 166 h-10q-24 -56 -63.5 -96t-84 -59t-81 -26.5t-70.5 -7.5q-140 0 -227.5 81.5t-87.5 238.5zM465 356q0 -47 27 -76.5t71 -29.5q41 0 75 29t34 92v102h-62q-66 0 -105.5 -28.5t-39.5 -88.5z" />
<glyph unicode="b" horiz-adv-x="1187" d="M98 0v1460h391v-506h5q45 76 127.5 126t156.5 50q167 0 247.5 -97t80.5 -259v-434q0 -151 -98 -258t-252 -107q-92 0 -172 45t-111 127h-4l-10 -147h-361zM489 379q0 -64 37 -92.5t82 -28.5q48 0 77.5 26.5t29.5 84.5v350q0 59 -30.5 85.5t-76.5 26.5q-49 0 -84 -38.5 t-35 -120.5v-293z" />
<glyph unicode="c" horiz-adv-x="1097" d="M82 389v303q0 88 28 161.5t75.5 124t111 85.5t133 51t143.5 16q129 0 231.5 -42t163 -125.5t60.5 -196.5v-94h-344v69q0 103 -98 103q-53 0 -81 -30t-28 -85v-350q0 -57 28.5 -89t80.5 -32q46 0 72 26.5t26 77.5v70h344v-104q0 -115 -61 -196.5t-162 -119t-232 -37.5 q-95 0 -179.5 23t-156 70.5t-113.5 130t-42 190.5z" />
<glyph unicode="d" horiz-adv-x="1187" d="M82 350v422q0 148 95 253t253 105q75 0 146.5 -32t119.5 -105h2v467h392v-1460h-375l-2 160h-8q-47 -78 -126.5 -131.5t-166.5 -53.5q-166 0 -248 103.5t-82 271.5zM473 387q0 -57 31.5 -85t77.5 -28t81 41t35 109v303q0 63 -35.5 92t-78.5 29q-111 0 -111 -113v-348z " />
<glyph unicode="e" horiz-adv-x="1134" d="M82 416v256q0 115 41 205t111.5 144t157 81.5t183.5 27.5q214 0 349 -111.5t135 -309.5v-263h-584v-57q0 -119 174 -119q140 0 316 56l71 -254q-205 -97 -446 -97q-101 0 -190.5 27t-161.5 80t-114 139t-42 195zM475 657h211v93q0 52 -28 80t-78 28q-47 0 -76 -29.5 t-29 -78.5v-93z" />
<glyph unicode="f" horiz-adv-x="813" d="M72 772v315h125v111q0 79 30 140.5t80 97.5t110.5 54.5t127.5 18.5q150 0 235 -28v-275q-69 11 -114 11q-80 0 -80 -52v-78h151v-315h-151v-772h-389v772h-125z" />
<glyph unicode="g" horiz-adv-x="1189" d="M82 401v377q0 150 99 251t259 101q78 0 158 -45t119 -108h4l12 131h359v-995q0 -245 -143.5 -371.5t-407.5 -126.5q-226 0 -420 76l92 282q166 -57 307 -57q95 0 137.5 33.5t42.5 107.5v176h-4q-33 -85 -109 -139.5t-169 -54.5q-164 0 -250 100.5t-86 261.5zM473 449 q0 -72 29 -96.5t82 -24.5q48 0 81 31t33 98v268q0 64 -35.5 93.5t-78.5 29.5q-56 0 -83.5 -28t-27.5 -95v-276z" />
<glyph unicode="h" horiz-adv-x="1196" d="M98 0v1460h391v-506h5q121 176 307 176q55 0 108 -20t97.5 -57t72 -97.5t27.5 -134.5v-821h-391v690q0 137 -115 137q-46 0 -78.5 -41t-32.5 -114v-672h-391z" />
<glyph unicode="i" horiz-adv-x="587" d="M98 0v1106h391v-1106h-391zM98 1208v330h391v-330h-391z" />
<glyph unicode="j" horiz-adv-x="610" d="M12 -45q20 -4 56 -4q37 0 49 19t12 57v1079h391v-1153q0 -109 -50.5 -187.5t-128 -114.5t-171.5 -36q-89 0 -158 10v330zM129 1208v330h391v-330h-391z" />
<glyph unicode="k" horiz-adv-x="1159" d="M98 0v1460h391v-794l252 440h389l-243 -379l258 -727h-416l-143 453l-97 -150v-303h-391z" />
<glyph unicode="l" horiz-adv-x="671" d="M90 254v1206h393v-1081q0 -34 14 -51t56 -17q29 0 70 6v-305q-110 -35 -211 -35q-151 0 -236.5 72.5t-85.5 204.5z" />
<glyph unicode="m" horiz-adv-x="1814" d="M98 0v1106h377v-160h4q59 85 142.5 134.5t179.5 49.5q91 0 171 -45.5t113 -132.5h7q129 178 327 178q54 0 107 -20t98 -57t72.5 -97.5t27.5 -134.5v-821h-391v690q0 137 -114 137q-47 0 -80 -41t-33 -114v-672h-391v690q0 137 -115 137q-46 0 -78.5 -41t-32.5 -114v-672 h-391z" />
<glyph unicode="n" horiz-adv-x="1196" d="M98 0v1106h379v-150h4q136 174 320 174q55 0 108 -20t97.5 -57t72 -97.5t27.5 -134.5v-821h-391v690q0 137 -115 137q-46 0 -78.5 -41t-32.5 -114v-672h-391z" />
<glyph unicode="o" horiz-adv-x="1163" d="M82 393v301q0 109 42 195t113 137.5t157.5 77.5t183.5 26q76 0 146 -13.5t136 -46t114.5 -80.5t77.5 -122t29 -166v-307q0 -89 -29 -161t-77.5 -119.5t-113.5 -79.5t-134.5 -46t-144.5 -14q-77 0 -146.5 12.5t-135.5 43t-113.5 77t-76 119.5t-28.5 166zM477 373 q0 -111 107 -111q52 0 77 32t25 83v344q0 53 -29 87t-75 34q-52 0 -78.5 -35t-26.5 -90v-344z" />
<glyph unicode="p" horiz-adv-x="1187" d="M98 -360v1466h383v-160h4q45 79 130 131.5t163 52.5q165 0 246.5 -96t81.5 -260v-434q0 -95 -43.5 -177.5t-127.5 -135t-192 -52.5q-69 0 -142 36t-107 102h-5v-473h-391zM489 379q0 -63 36 -92t79 -29q111 0 111 113v348q0 57 -30.5 84.5t-76.5 27.5q-50 0 -84.5 -38 t-34.5 -121v-293z" />
<glyph unicode="q" horiz-adv-x="1181" d="M82 344v412q0 163 92 268.5t254 105.5q84 0 163 -39t126 -114h4l12 131h359v-1468h-394v518h-4q-30 -72 -116.5 -127.5t-161.5 -55.5q-85 0 -150 28.5t-104.5 79.5t-59.5 116.5t-20 144.5zM473 387q0 -57 31.5 -85t77.5 -28t81 41.5t35 108.5v301q0 64 -34 93.5t-80 29.5 q-50 0 -80.5 -24.5t-30.5 -88.5v-348z" />
<glyph unicode="r" horiz-adv-x="874" d="M98 0v1106h385v-164h2q27 52 55 87.5t76 63t107 27.5q75 0 115 -12v-365q-69 7 -117 7q-232 0 -232 -146v-604h-391z" />
<glyph unicode="s" horiz-adv-x="1044" d="M41 94l156 254q66 -42 149.5 -74t145.5 -32q116 0 116 65q0 23 -28 39t-91 35l-81 25q-160 49 -234 134t-74 210q0 49 14.5 99.5t47.5 101.5t80 90.5t119 64t157 24.5q126 0 228.5 -30.5t205.5 -100.5l-149 -237q-147 104 -268 104q-38 0 -65.5 -15.5t-27.5 -41.5 q0 -21 14.5 -36.5t29.5 -22.5t46 -17l136 -45q167 -56 238 -136t71 -200q0 -171 -132 -274t-339 -103q-277 0 -465 119z" />
<glyph unicode="t" horiz-adv-x="864" d="M57 772v315h133v287h394v-287h215v-315h-215v-383q0 -35 16.5 -55.5t61.5 -20.5q48 0 100 9v-310q-108 -32 -242 -32q-65 0 -120.5 14.5t-104.5 46.5t-77 92t-28 143v496h-133z" />
<glyph unicode="u" horiz-adv-x="1196" d="M90 285v821h391v-690q0 -140 115 -140q45 0 78 42t33 114v674h391v-1106h-363l-12 168h-4q-55 -85 -142 -139t-182 -54q-55 0 -108 20t-97.5 57.5t-72 98t-27.5 134.5z" />
<glyph unicode="v" horiz-adv-x="1079" d="M12 1106h418l137 -576h4l144 576h352l-336 -1108h-371z" />
<glyph unicode="w" horiz-adv-x="1591" d="M20 1106h400l92 -528h10l111 528h366l109 -528h10l99 528h348l-283 -1108h-346l-135 614h-6l-138 -614h-354z" />
<glyph unicode="x" horiz-adv-x="1089" d="M0 0l313 563l-299 543h428l136 -264l118 264h375l-295 -535l314 -571h-431l-147 295l-147 -295h-365z" />
<glyph unicode="y" horiz-adv-x="1091" d="M0 1106h416l174 -553h6l143 553h353l-351 -1124q-61 -188 -157 -277.5t-262 -89.5q-106 0 -220 29l54 313q99 -23 166 -23q46 0 65 64l8 33z" />
<glyph unicode="z" horiz-adv-x="1032" d="M72 0v246l389 555h-373v305h870v-254l-380 -545h380v-307h-886z" />
<glyph unicode="{" horiz-adv-x="657" d="M82 475v223q59 11 72.5 30.5t13.5 76.5v403q0 126 59 189t160 63h211v-213h-72q-45 0 -45 -45v-362q0 -105 -21 -157.5t-87 -78.5v-12q31 -12 51 -27t32 -30.5t17 -44.5t6.5 -54.5t1.5 -75.5v-464q0 -46 45 -46h72v-210h-211q-101 0 -160 61.5t-59 187.5v447 q0 76 -16.5 104.5t-69.5 34.5z" />
<glyph unicode="|" horiz-adv-x="638" d="M207 -109v1594h225v-1594h-225z" />
<glyph unicode="}" horiz-adv-x="657" d="M59 -150h72q45 0 45 46v464q0 49 1.5 75t7 54.5t17.5 44.5t32 31t51 27v12q-67 26 -88 78.5t-21 157.5v364q0 45 -45 45h-72v213h211q101 0 160 -63t59 -189v-405q0 -57 13.5 -76.5t72.5 -30.5v-223q-53 -6 -69.5 -34.5t-16.5 -104.5v-447q0 -126 -59 -187.5t-160 -61.5 h-211v210z" />
<glyph unicode="~" d="M49 494q10 65 28.5 118.5t49 99t77.5 70.5t107 25q61 0 245 -34t245 -34q35 0 57 24.5t43 76.5l156 -37q-41 -311 -256 -311q-60 0 -247.5 33.5t-244.5 33.5q-43 0 -64 -21t-36 -77z" />
<glyph unicode="&#xa1;" horiz-adv-x="593" d="M106 207l72 455h236l73 -455v-529h-381v529zM117 756v383h360v-383h-360z" />
<glyph unicode="&#xa2;" horiz-adv-x="1116" d="M82 416v284q0 88 29 161.5t79.5 124t113 83.5t136.5 51v152h285v-152q146 -30 231.5 -120.5t85.5 -225.5v-84h-344v60q0 58 -30 87t-82 29q-58 0 -89.5 -33.5t-31.5 -95.5v-331q0 -62 31.5 -98t89.5 -36q51 0 81.5 29.5t30.5 85.5v62h344v-97q0 -136 -85 -221.5 t-232 -114.5v-139h-285v139q-75 14 -137.5 44.5t-113 78t-79 118.5t-28.5 159z" />
<glyph unicode="&#xa3;" horiz-adv-x="1214" d="M70 0v317h141v275h-102v229h102v226q0 91 29 166t77.5 124.5t112.5 83.5t131 49t137 15q86 0 161.5 -23t134.5 -68.5t93.5 -120t34.5 -169.5v-123h-321v113q0 47 -25.5 73.5t-75.5 26.5q-48 0 -73 -30.5t-25 -69.5v-273h307v-229h-307v-275h565l-61 -317h-1036z" />
<glyph unicode="&#xa5;" horiz-adv-x="1267" d="M0 1460h436l217 -516l209 516h406l-355 -766h258v-250h-325v-444h-424v444h-326v250h258z" />
<glyph unicode="&#xa6;" horiz-adv-x="653" d="M205 -96v745h244v-745h-244zM205 786v676h244v-676h-244z" />
<glyph unicode="&#xa7;" horiz-adv-x="1030" d="M76 164v69h307v-18q0 -23 2.5 -42t11 -41.5t23.5 -38t42 -26t64 -10.5q32 0 54.5 11.5t33 30t15 36t4.5 35.5q0 85 -121 125l-139 43q-293 91 -293 319q0 125 115 240q-99 80 -99 233q0 161 110.5 257t301.5 96q181 0 294 -87.5t113 -252.5v-66h-282v62q0 42 -31.5 76 t-89.5 34q-59 0 -89 -27t-30 -67q0 -37 30.5 -63.5t72.5 -38.5l174 -58q58 -17 103 -39t89 -58t68 -91t24 -125q0 -133 -120 -244q116 -105 116 -231q0 -165 -130 -274t-333 -109q-55 0 -108.5 9.5t-109.5 34t-98 61.5t-68.5 98t-26.5 137zM381 672q0 -47 96 -78l101 -29 q28 11 45.5 35.5t17.5 46.5q0 30 -17 52t-65 38q-76 23 -123 35q-55 -44 -55 -100z" />
<glyph unicode="&#xa8;" horiz-adv-x="851" d="M49 1208v334h318v-334h-318zM483 1208v334h318v-334h-318z" />
<glyph unicode="&#xa9;" horiz-adv-x="1734" d="M94 711q0 165 56.5 314t156 259t245 175t314.5 65q176 0 323 -64.5t245 -175t152 -258t54 -313.5q0 -167 -55 -316t-154 -260.5t-245.5 -177t-319.5 -65.5q-180 0 -327.5 65t-244 176.5t-148.5 259.5t-52 316zM293 711q0 -149 46.5 -274.5t125 -209t182.5 -130t219 -46.5 q114 0 219 47.5t185 131.5t128 210t48 273t-46.5 272.5t-125.5 210t-184.5 131.5t-223.5 47q-120 0 -225 -47t-182 -131t-121.5 -209.5t-44.5 -275.5zM471 500v420q0 67 22.5 123.5t61 95.5t90.5 66t110.5 39.5t121.5 12.5q57 0 111.5 -11t105 -35t88.5 -59.5t61 -88 t23 -115.5v-131h-293v107q0 40 -25.5 63t-64.5 23q-97 0 -97 -95v-411q0 -96 97 -96q40 0 65 22t25 62v118h293v-143q0 -63 -22.5 -115.5t-60.5 -87.5t-88.5 -59t-104.5 -34.5t-111 -10.5q-80 0 -150.5 19t-129.5 58t-93.5 106.5t-34.5 156.5z" />
<glyph unicode="&#xaa;" horiz-adv-x="731" d="M66 993q0 48 20 86t51 62t72.5 40t82.5 22.5t83 6.5h41v47q0 22 -16 38t-46 16q-59 0 -59 -54v-28h-211v37q0 95 82.5 151t206.5 56q119 0 198.5 -56.5t79.5 -167.5v-282q0 -68 13 -146h-222q0 6 -8 74q-30 -49 -81 -68.5t-97 -19.5q-83 0 -136.5 47.5t-53.5 138.5z M113 557v170h532v-170h-532zM305 1028q0 -29 11 -44t40 -15q21 0 40.5 17t19.5 46v60h-33q-78 0 -78 -64z" />
<glyph unicode="&#xab;" horiz-adv-x="1093" d="M45 549l320 391l186 -100l-113 -291l119 -291l-192 -96zM537 549l319 391l186 -100l-112 -291l119 -291l-193 -96z" />
<glyph unicode="&#xac;" horiz-adv-x="1296" d="M92 535v225h1071v-510h-252v285h-819z" />
<glyph unicode="&#xad;" horiz-adv-x="684" d="M74 492v278h536v-278h-536z" />
<glyph unicode="&#xae;" horiz-adv-x="1040" d="M70 1071q0 191 127.5 326t320.5 135q134 0 238.5 -63.5t159.5 -168t55 -229.5q0 -193 -127.5 -328t-325.5 -135q-135 0 -238.5 64t-156.5 168.5t-53 230.5zM195 1071q0 -161 95.5 -260.5t227.5 -99.5q133 0 231.5 100t98.5 260t-96.5 260.5t-233.5 100.5 q-136 0 -229.5 -99.5t-93.5 -261.5zM334 831v502h223q85 0 129.5 -44.5t44.5 -114.5q0 -48 -22.5 -88.5t-63.5 -61.5l100 -193h-157l-78 170h-31v-170h-145zM479 1104h53q26 0 42 17t16 42q0 24 -15 41t-40 17h-56v-117z" />
<glyph unicode="&#xaf;" horiz-adv-x="890" d="M88 1229v258h713v-258h-713z" />
<glyph unicode="&#xb0;" horiz-adv-x="655" d="M78 1276q0 100 73 173t177 73q112 0 181 -70t69 -168q0 -101 -74 -173.5t-176 -72.5q-113 0 -181.5 71t-68.5 167zM238 1278q0 -41 26.5 -69.5t63.5 -28.5q38 0 65 28.5t27 69.5t-25 71.5t-67 30.5q-40 0 -65 -29t-25 -73z" />
<glyph unicode="&#xb1;" d="M102 0v236h897v-236h-897zM102 647v236h334v299h236v-299h332v-236h-332v-280h-236v280h-334z" />
<glyph unicode="&#xb2;" horiz-adv-x="737" d="M51 1288v55q0 123 88.5 189.5t231.5 66.5q147 0 231 -72.5t84 -185.5q0 -36 -12 -71.5t-26.5 -61.5t-44 -59t-48 -51t-55.5 -51l-62 -60h248v-209h-610v172l241 228q36 33 55 53t37.5 48.5t18.5 51.5v4q0 56 -57 56q-62 0 -62 -72v-31h-258z" />
<glyph unicode="&#xb3;" horiz-adv-x="737" d="M41 1001v33h252v-24q0 -54 63 -54q62 0 62 68q0 34 -21 48.5t-47 14.5h-74v175h58q41 0 60.5 13.5t19.5 53.5q0 31 -17 47.5t-43 16.5q-59 0 -59 -58v-20h-248v35q0 115 83 183.5t228 68.5q144 0 230 -63.5t86 -174.5q0 -62 -36 -113t-99 -69v-4q73 -17 115 -65t42 -112 q0 -247 -331 -247q-157 0 -240.5 62t-83.5 185z" />
<glyph unicode="&#xb4;" horiz-adv-x="643" d="M57 1214l170 334h373l-262 -334h-281z" />
<glyph unicode="&#xb5;" horiz-adv-x="1243" d="M90 -365v1471h391v-690q0 -140 115 -140q47 0 88 43t41 113v674h391v-660q0 -89 90 -98l-4 -358q-137 2 -230 41t-130 133q-61 -189 -232 -189q-161 0 -204 117l-15 -2l62 -420z" />
<glyph unicode="&#xb6;" horiz-adv-x="1112" d="M82 928q0 101 31 197.5t84.5 170.5t129.5 119t160 45h553v-227h-73v-1401h-211v1401h-129v-1401h-209v590q-107 19 -184.5 94.5t-114.5 181.5t-37 230z" />
<glyph unicode="&#xb7;" horiz-adv-x="540" d="M90 535v383h361v-383h-361z" />
<glyph unicode="&#xb8;" horiz-adv-x="696" d="M92 -270q119 -29 209 -29q72 0 72 43q0 38 -76 43l-104 6l65 236h143l-34 -129q33 1 64.5 -2t67.5 -12.5t62.5 -24.5t44 -43t17.5 -64q0 -91 -90.5 -145.5t-215.5 -54.5q-129 0 -225 24v152z" />
<glyph unicode="&#xb9;" horiz-adv-x="636" d="M88 1536l250 57h147v-815h-270v586l-102 -16z" />
<glyph unicode="&#xba;" horiz-adv-x="755" d="M70 1053v178q0 124 87 189t210 65q57 0 109 -13.5t96.5 -42t71 -78.5t26.5 -116v-180q0 -64 -26.5 -113t-70.5 -77t-95.5 -42t-106.5 -14q-59 0 -110 12.5t-95 39.5t-70 76t-26 116zM109 557v170h534v-170h-534zM311 1044q0 -63 60 -63q28 0 42.5 17.5t14.5 45.5v201 q0 29 -16 46.5t-41 17.5q-60 0 -60 -66v-199z" />
<glyph unicode="&#xbb;" horiz-adv-x="1095" d="M45 844l195 96l319 -387l-319 -391l-191 100l113 291zM537 844l194 96l320 -387l-320 -391l-190 100l112 291z" />
<glyph unicode="&#xbc;" horiz-adv-x="1679" d="M133 1405l250 57h147v-815h-270v586l-102 -16zM291 -4l815 1474h178l-815 -1474h-178zM866 147v185l297 477h279l-314 -461h86v68l269 180v-248h71v-201h-71v-147h-269v147h-348z" />
<glyph unicode="&#xbd;" horiz-adv-x="1679" d="M123 1405l250 57h147v-815h-270v586l-103 -16zM281 -4l815 1474h178l-815 -1474h-178zM938 510v55q0 124 88 190t231 66q147 0 231.5 -72.5t84.5 -185.5q0 -36 -12 -71.5t-27 -61.5t-44.5 -59.5t-48 -51.5t-55.5 -51l-61 -59h248v-209h-610v172l241 227q35 32 55 53 t38 49.5t18 51.5v4q0 55 -58 55q-61 0 -61 -71v-31h-258z" />
<glyph unicode="&#xbe;" horiz-adv-x="1679" d="M55 870v33h252v-24q0 -54 64 -54q61 0 61 68q0 34 -20.5 48.5t-46.5 14.5h-74v174h57q41 0 60.5 14t19.5 54q0 31 -16.5 47.5t-42.5 16.5q-60 0 -60 -58v-20h-248v35q0 115 83.5 183t228.5 68q144 0 229.5 -63t85.5 -174q0 -62 -36 -113t-99 -69v-4q73 -17 115.5 -65 t42.5 -112q0 -247 -332 -247q-157 0 -240.5 62t-83.5 185zM375 -4l815 1474h178l-815 -1474h-178zM922 147v185l297 477h278l-313 -461h86v68l268 180v-248h72v-201h-72v-147h-268v147h-348z" />
<glyph unicode="&#xbf;" horiz-adv-x="1060" d="M59 66q0 114 47.5 195t129.5 149q10 9 49 39.5t57.5 48t37.5 50t19 66.5v48h349v-46q0 -89 -28.5 -155t-88.5 -127q-14 -15 -47 -45.5t-51 -50t-40.5 -48t-33 -58t-10.5 -60.5q0 -45 27 -72t77 -27t76 29t26 80v57h332v-65q0 -127 -62.5 -223t-166 -144.5t-230.5 -48.5 q-223 0 -346 109t-123 299zM373 756v383h391v-383h-391z" />
<glyph unicode="&#xc0;" horiz-adv-x="1415" d="M25 0l419 1462h537l410 -1462h-435l-61 246h-420l-61 -246h-389zM319 1888h373l170 -334h-280zM561 565h250l-123 488h-6z" />
<glyph unicode="&#xc1;" horiz-adv-x="1415" d="M25 0l419 1462h537l410 -1462h-435l-61 246h-420l-61 -246h-389zM561 565h250l-123 488h-6zM561 1554l170 334h373l-262 -334h-281z" />
<glyph unicode="&#xc2;" horiz-adv-x="1415" d="M25 0l419 1462h537l410 -1462h-435l-61 246h-420l-61 -246h-389zM322 1556l249 353h275l248 -353h-291l-103 162l-102 -162h-276zM561 565h250l-123 488h-6z" />
<glyph unicode="&#xc3;" horiz-adv-x="1415" d="M25 0l419 1462h537l410 -1462h-435l-61 246h-420l-61 -246h-389zM279 1575q19 134 87 223.5t179 89.5q58 0 168 -35.5t166 -35.5q35 0 55.5 25t40.5 77l162 -43q-7 -61 -25 -113t-48 -96.5t-77.5 -70t-107.5 -25.5q-56 0 -163 34.5t-161 34.5q-40 0 -59 -22t-35 -80z M561 565h250l-123 488h-6z" />
<glyph unicode="&#xc4;" horiz-adv-x="1415" d="M25 0l376 1311h265v151h84v-151h274l367 -1311h-435l-61 246h-420l-61 -246h-389zM332 1327v334h317v-334h-317zM561 565h250l-123 488h-6zM766 1327v334h317v-334h-317z" />
<glyph unicode="&#xc5;" horiz-adv-x="1415" d="M25 0l391 1356h96q-29 53 -29 114q0 97 66 162.5t158 65.5q99 0 163 -57t64 -158q0 -69 -39 -127h115l381 -1356h-435l-61 246h-420l-61 -246h-389zM561 565h250l-123 488h-6zM621 1475q0 -45 22 -74t64 -29t64 29t22 74q0 102 -91 102q-81 0 -81 -102z" />
<glyph unicode="&#xc6;" horiz-adv-x="1904" d="M16 0l504 1460h1301v-334h-590v-227h467v-334h-467v-229h592v-336h-1014v260h-287l-84 -260h-422zM616 571h193v623h-2z" />
<glyph unicode="&#xc7;" horiz-adv-x="1294" d="M86 477v498q0 121 48.5 220t130 161t184.5 95.5t217 33.5q118 0 217.5 -28.5t175.5 -84t119 -146t43 -206.5v-109h-390v86q0 70 -46.5 109t-110.5 39q-76 0 -119 -40.5t-43 -117.5v-506q0 -79 41.5 -122.5t120.5 -43.5q64 0 110.5 39t46.5 109v86h390v-111 q0 -107 -36 -191.5t-101 -140t-152 -88t-193 -41.5l-20 -77q33 1 64.5 -2t67.5 -12.5t62.5 -24.5t44 -43t17.5 -64q0 -91 -90 -145.5t-215 -54.5q-130 0 -226 24v152q119 -29 209 -29q72 0 72 43q0 38 -76 43l-104 6l51 184q-106 9 -195 42t-161 91.5t-113 152.5t-41 214z " />
<glyph unicode="&#xc8;" horiz-adv-x="1198" d="M102 0v1460h1012v-334h-590v-223h467v-334h-467v-233h592v-336h-1014zM252 1888h373l170 -334h-281z" />
<glyph unicode="&#xc9;" horiz-adv-x="1198" d="M102 0v1460h1012v-334h-590v-223h467v-334h-467v-233h592v-336h-1014zM420 1554l170 334h373l-263 -334h-280z" />
<glyph unicode="&#xca;" horiz-adv-x="1198" d="M102 0v1460h1012v-334h-590v-223h467v-334h-467v-233h592v-336h-1014zM223 1556l250 353h275l247 -353h-290l-103 162l-102 -162h-277z" />
<glyph unicode="&#xcb;" horiz-adv-x="1198" d="M102 0v1460h1012v-334h-590v-223h467v-334h-467v-233h592v-336h-1014zM233 1548v334h318v-334h-318zM668 1548v334h317v-334h-317z" />
<glyph unicode="&#xcc;" horiz-adv-x="626" d="M-80 1888h373l170 -334h-281zM102 0v1460h422v-1460h-422z" />
<glyph unicode="&#xcd;" horiz-adv-x="626" d="M102 0v1460h422v-1460h-422zM174 1554l170 334h373l-262 -334h-281z" />
<glyph unicode="&#xce;" horiz-adv-x="626" d="M-72 1556l250 353h275l247 -353h-290l-103 162l-102 -162h-277zM102 0v1460h422v-1460h-422z" />
<glyph unicode="&#xcf;" horiz-adv-x="626" d="M-61 1548v334h317v-334h-317zM102 0v1460h422v-1460h-422zM373 1548v334h317v-334h-317z" />
<glyph unicode="&#xd0;" horiz-adv-x="1378" d="M66 588v272h88v600h591q116 0 213 -27t173 -81t118.5 -143t42.5 -205v-521q0 -101 -28 -182t-77.5 -136.5t-119 -93t-149 -54.5t-170.5 -17h-594v588h-88zM575 336h134q78 0 117.5 47.5t39.5 114.5v467q0 71 -44.5 114t-121.5 43h-125v-262h195v-272h-195v-252z" />
<glyph unicode="&#xd1;" horiz-adv-x="1384" d="M102 0v1460h414l383 -639h4v639h379v-1460h-352l-445 729h-4v-729h-379zM285 1575q19 134 87 223.5t179 89.5q58 0 168 -35.5t166 -35.5q35 0 55.5 25t40.5 77l162 -43q-7 -61 -25 -113t-48 -96.5t-77.5 -70t-107.5 -25.5q-56 0 -163 34.5t-161 34.5q-40 0 -59 -22 t-35 -80z" />
<glyph unicode="&#xd2;" horiz-adv-x="1347" d="M86 494v469q0 104 31 190.5t85 147t128 102.5t159.5 62t180.5 20t179.5 -17t161 -56.5t131.5 -99t87.5 -148.5t32.5 -201v-467q0 -109 -32.5 -197.5t-88 -148t-131.5 -99.5t-160 -58t-176 -18q-97 0 -181.5 17t-160.5 56t-129.5 97.5t-85 147.5t-31.5 201zM283 1888h372 l170 -334h-280zM512 492q0 -84 41.5 -129.5t122.5 -45.5q74 0 117 45t43 123v492q0 80 -47 123t-117 43q-160 0 -160 -166v-485z" />
<glyph unicode="&#xd3;" horiz-adv-x="1347" d="M86 494v469q0 104 31 190.5t85 147t128 102.5t159.5 62t180.5 20t179.5 -17t161 -56.5t131.5 -99t87.5 -148.5t32.5 -201v-467q0 -109 -32.5 -197.5t-88 -148t-131.5 -99.5t-160 -58t-176 -18q-97 0 -181.5 17t-160.5 56t-129.5 97.5t-85 147.5t-31.5 201zM512 492 q0 -84 41.5 -129.5t122.5 -45.5q74 0 117 45t43 123v492q0 80 -47 123t-117 43q-160 0 -160 -166v-485zM516 1554l170 334h373l-262 -334h-281z" />
<glyph unicode="&#xd4;" horiz-adv-x="1347" d="M86 494v469q0 104 31 190.5t85 147t128 102.5t159.5 62t180.5 20t179.5 -17t161 -56.5t131.5 -99t87.5 -148.5t32.5 -201v-467q0 -109 -32.5 -197.5t-88 -148t-131.5 -99.5t-160 -58t-176 -18q-97 0 -181.5 17t-160.5 56t-129.5 97.5t-85 147.5t-31.5 201zM289 1556 l250 353h274l248 -353h-291l-102 162l-103 -162h-276zM512 492q0 -84 41.5 -129.5t122.5 -45.5q74 0 117 45t43 123v492q0 80 -47 123t-117 43q-160 0 -160 -166v-485z" />
<glyph unicode="&#xd5;" horiz-adv-x="1347" d="M86 494v469q0 104 31 190.5t85 147t128 102.5t159.5 62t180.5 20t179.5 -17t161 -56.5t131.5 -99t87.5 -148.5t32.5 -201v-467q0 -109 -32.5 -197.5t-88 -148t-131.5 -99.5t-160 -58t-176 -18q-97 0 -181.5 17t-160.5 56t-129.5 97.5t-85 147.5t-31.5 201zM246 1575 q19 134 87 223.5t179 89.5q58 0 168 -35.5t166 -35.5q35 0 55.5 25t40.5 77l162 -43q-7 -61 -25 -113t-48 -96.5t-77.5 -70t-107.5 -25.5q-56 0 -163 34.5t-161 34.5q-40 0 -59 -22t-35 -80zM512 492q0 -84 41.5 -129.5t122.5 -45.5q74 0 117 45t43 123v492q0 80 -47 123 t-117 43q-160 0 -160 -166v-485z" />
<glyph unicode="&#xd6;" horiz-adv-x="1347" d="M86 494v469q0 137 52 240.5t145 168.5v-61h350v174h37q31 0 47 -2v-172h350v67q195 -137 195 -415v-467q0 -109 -32.5 -197.5t-88 -148t-131.5 -99.5t-160 -58t-176 -18q-97 0 -181.5 17t-160.5 56t-129.5 97.5t-85 147.5t-31.5 201zM299 1327v334h317v-334h-317z M512 492q0 -84 41.5 -129.5t122.5 -45.5q74 0 117 45t43 123v492q0 80 -47 123t-117 43q-160 0 -160 -166v-485zM733 1327v334h318v-334h-318z" />
<glyph unicode="&#xd7;" d="M92 950l168 170l297 -295l289 295l168 -170l-289 -295l289 -301l-168 -168l-289 297l-289 -297l-168 168l289 299z" />
<glyph unicode="&#xd8;" horiz-adv-x="1347" d="M86 494v469q0 104 31 190.5t85 147t128 102.5t159.5 62t180.5 20q158 0 280 -47l78 149l139 -57l-86 -164q181 -139 181 -403v-467q0 -109 -32.5 -197.5t-88 -148t-131.5 -99.5t-160 -58t-176 -18q-161 0 -283 45l-72 -139l-139 58l80 153q-174 135 -174 402zM512 584 l268 522q-46 37 -108 37q-160 0 -160 -166v-393zM561 354q40 -37 115 -37q74 0 117 45t43 123v400z" />
<glyph unicode="&#xd9;" horiz-adv-x="1343" d="M94 483v977h422v-964q0 -90 46.5 -137.5t121.5 -47.5q70 0 114 49.5t44 135.5v964h407v-948q0 -257 -153.5 -397t-419.5 -140q-277 0 -429.5 126t-152.5 382zM303 1888h373l170 -334h-281z" />
<glyph unicode="&#xda;" horiz-adv-x="1343" d="M94 483v977h422v-964q0 -90 46.5 -137.5t121.5 -47.5q70 0 114 49.5t44 135.5v964h407v-948q0 -257 -153.5 -397t-419.5 -140q-277 0 -429.5 126t-152.5 382zM528 1554l170 334h373l-262 -334h-281z" />
<glyph unicode="&#xdb;" horiz-adv-x="1343" d="M94 483v977h422v-964q0 -90 46.5 -137.5t121.5 -47.5q70 0 114 49.5t44 135.5v964h407v-948q0 -257 -153.5 -397t-419.5 -140q-277 0 -429.5 126t-152.5 382zM287 1556l250 353h274l248 -353h-291l-102 162l-103 -162h-276z" />
<glyph unicode="&#xdc;" horiz-adv-x="1343" d="M94 483v977h422v-964q0 -90 46.5 -137.5t121.5 -47.5q70 0 114 49.5t44 135.5v964h407v-948q0 -257 -153.5 -397t-419.5 -140q-277 0 -429.5 126t-152.5 382zM297 1548v334h317v-334h-317zM731 1548v334h318v-334h-318z" />
<glyph unicode="&#xdd;" horiz-adv-x="1300" d="M16 1460h447l217 -528l209 528h395l-422 -899v-561h-424v563zM520 1554l170 334h373l-262 -334h-281z" />
<glyph unicode="&#xde;" horiz-adv-x="1292" d="M102 0v1460h422v-258h215q119 0 210.5 -33t149 -92.5t86.5 -138.5t29 -174q0 -98 -27 -181.5t-82.5 -150.5t-149.5 -105t-218 -38h-213v-289h-422zM524 584h138q67 0 104 45t37 119q0 71 -35 112t-104 41h-140v-317z" />
<glyph unicode="&#xdf;" horiz-adv-x="1366" d="M68 788v297h118v5q0 49 17 101t58.5 107t102.5 98.5t157.5 71t213.5 27.5q218 0 362 -111.5t144 -287.5q0 -98 -53 -186.5t-144 -125.5v-8q125 -51 194 -158t69 -233q0 -94 -35.5 -172t-94 -127t-130.5 -75.5t-148 -26.5q-142 0 -242 32l29 289l31.5 -3.5t45.5 -4.5 t42 -2q53 0 84 29t31 88q0 62 -62.5 105.5t-169.5 57.5v285h55q47 26 80 69.5t33 94.5q0 154 -145 154q-136 0 -136 -156v-1022h-389v788h-118z" />
<glyph unicode="&#xe0;" horiz-adv-x="1157" d="M74 297q0 82 33 147.5t85.5 106.5t123 68t139.5 38t141 11h76v98q0 44 -29 71t-86 27q-60 0 -84 -33t-24 -75v-33h-349v51q0 108 66.5 190t177 124t246.5 42q96 0 180 -23.5t150 -69.5t104.5 -121.5t38.5 -172.5v-495q0 -50 4 -108.5t8 -97.5t4 -42h-362q-9 45 -19 166 h-10q-24 -56 -63.5 -96t-84 -59t-81 -26.5t-70.5 -7.5q-140 0 -227.5 81.5t-87.5 238.5zM225 1548h373l170 -334h-281zM465 356q0 -47 27 -76.5t71 -29.5q41 0 75 29t34 92v102h-62q-66 0 -105.5 -28.5t-39.5 -88.5z" />
<glyph unicode="&#xe1;" horiz-adv-x="1157" d="M74 297q0 82 33 147.5t85.5 106.5t123 68t139.5 38t141 11h76v98q0 44 -29 71t-86 27q-60 0 -84 -33t-24 -75v-33h-349v51q0 108 66.5 190t177 124t246.5 42q96 0 180 -23.5t150 -69.5t104.5 -121.5t38.5 -172.5v-495q0 -50 4 -108.5t8 -97.5t4 -42h-362q-9 45 -19 166 h-10q-24 -56 -63.5 -96t-84 -59t-81 -26.5t-70.5 -7.5q-140 0 -227.5 81.5t-87.5 238.5zM436 1214l170 334h373l-262 -334h-281zM465 356q0 -47 27 -76.5t71 -29.5q41 0 75 29t34 92v102h-62q-66 0 -105.5 -28.5t-39.5 -88.5z" />
<glyph unicode="&#xe2;" horiz-adv-x="1157" d="M74 297q0 82 33 147.5t85.5 106.5t123 68t139.5 38t141 11h76v98q0 44 -29 71t-86 27q-60 0 -84 -33t-24 -75v-33h-349v51q0 108 66.5 190t177 124t246.5 42q96 0 180 -23.5t150 -69.5t104.5 -121.5t38.5 -172.5v-495q0 -50 4 -108.5t8 -97.5t4 -42h-362q-9 45 -19 166 h-10q-24 -56 -63.5 -96t-84 -59t-81 -26.5t-70.5 -7.5q-140 0 -227.5 81.5t-87.5 238.5zM178 1217l250 352h274l248 -352h-291l-102 161l-102 -161h-277zM465 356q0 -47 27 -76.5t71 -29.5q41 0 75 29t34 92v102h-62q-66 0 -105.5 -28.5t-39.5 -88.5z" />
<glyph unicode="&#xe3;" horiz-adv-x="1157" d="M74 297q0 82 33 147.5t85.5 106.5t123 68t139.5 38t141 11h76v98q0 44 -29 71t-86 27q-60 0 -84 -33t-24 -75v-33h-349v51q0 108 66.5 190t177 124t246.5 42q96 0 180 -23.5t150 -69.5t104.5 -121.5t38.5 -172.5v-495q0 -50 4 -108.5t8 -97.5t4 -42h-362q-9 45 -19 166 h-10q-24 -56 -63.5 -96t-84 -59t-81 -26.5t-70.5 -7.5q-140 0 -227.5 81.5t-87.5 238.5zM137 1235q19 134 87 223.5t179 89.5q58 0 168 -35.5t166 -35.5q35 0 56 25t41 77l161 -43q-7 -61 -25 -113t-48 -96.5t-77.5 -70t-107.5 -25.5q-56 0 -162.5 34.5t-160.5 34.5 q-40 0 -59.5 -22.5t-35.5 -79.5zM465 356q0 -47 27 -76.5t71 -29.5q41 0 75 29t34 92v102h-62q-66 0 -105.5 -28.5t-39.5 -88.5z" />
<glyph unicode="&#xe4;" horiz-adv-x="1157" d="M74 297q0 82 33 147.5t85.5 106.5t123 68t139.5 38t141 11h76v98q0 44 -29 71t-86 27q-60 0 -84 -33t-24 -75v-33h-349v51q0 108 66.5 190t177 124t246.5 42q96 0 180 -23.5t150 -69.5t104.5 -121.5t38.5 -172.5v-495q0 -50 4 -108.5t8 -97.5t4 -42h-362q-9 45 -19 166 h-10q-24 -56 -63.5 -96t-84 -59t-81 -26.5t-70.5 -7.5q-140 0 -227.5 81.5t-87.5 238.5zM195 1208v334h317v-334h-317zM465 356q0 -47 27 -76.5t71 -29.5q41 0 75 29t34 92v102h-62q-66 0 -105.5 -28.5t-39.5 -88.5zM629 1208v334h317v-334h-317z" />
<glyph unicode="&#xe5;" horiz-adv-x="1157" d="M74 297q0 82 33 147.5t85.5 106.5t123 68t139.5 38t141 11h76v98q0 44 -29 71t-86 27q-60 0 -84 -33t-24 -75v-33h-349v51q0 108 66.5 190t177 124t246.5 42q96 0 180 -23.5t150 -69.5t104.5 -121.5t38.5 -172.5v-495q0 -50 4 -108.5t8 -97.5t4 -42h-362q-9 45 -19 166 h-10q-24 -56 -63.5 -96t-84 -59t-81 -26.5t-70.5 -7.5q-140 0 -227.5 81.5t-87.5 238.5zM352 1405q0 97 65.5 162t157.5 65q99 0 163.5 -57t64.5 -158q0 -97 -67.5 -164t-160.5 -67q-95 0 -159 59.5t-64 159.5zM465 356q0 -47 27 -76.5t71 -29.5q41 0 75 29t34 92v102h-62 q-66 0 -105.5 -28.5t-39.5 -88.5zM489 1409q0 -45 22 -73.5t64 -28.5t64.5 28.5t22.5 73.5q0 102 -91 102q-42 0 -62 -28t-20 -74z" />
<glyph unicode="&#xe6;" horiz-adv-x="1722" d="M74 297q0 82 33 147.5t85.5 106.5t123 68t139.5 38t141 11h76v98q0 44 -29 71t-86 27q-60 0 -84 -33t-24 -75v-33h-349v51q0 108 66.5 190t177 124t246.5 42q173 0 289 -73q125 73 288 73q213 0 346.5 -111t133.5 -310v-263h-584v-57q0 -119 184 -119q63 0 154 18.5 t151 37.5l72 -254q-205 -97 -434 -97q-139 0 -255 44t-179 133q-34 -54 -87.5 -92t-109 -55t-96.5 -23.5t-74 -6.5q-139 0 -227 82.5t-88 239.5zM465 356q0 -47 27 -76.5t71 -29.5q38 0 73.5 31t35.5 84v108h-62q-66 0 -105.5 -28.5t-39.5 -88.5zM1063 657h213v93 q0 52 -29.5 80t-79.5 28q-47 0 -75.5 -29.5t-28.5 -78.5v-93z" />
<glyph unicode="&#xe7;" horiz-adv-x="1097" d="M82 389v303q0 88 28 161.5t75.5 124t111 85.5t133 51t143.5 16q129 0 231.5 -42t163 -125.5t60.5 -196.5v-94h-344v69q0 103 -98 103q-53 0 -81 -30t-28 -85v-350q0 -57 28.5 -89t80.5 -32q46 0 72 26.5t26 77.5v70h344v-104q0 -155 -104.5 -243.5t-278.5 -104.5l-20 -80 q33 1 64.5 -2t67.5 -12.5t62.5 -24.5t44 -43t17.5 -64q0 -91 -90.5 -145.5t-215.5 -54.5q-129 0 -225 24v152q119 -29 209 -29q72 0 72 43q0 38 -76 43l-104 6l51 187q-85 8 -158 35t-133 74.5t-94.5 124.5t-34.5 175z" />
<glyph unicode="&#xe8;" horiz-adv-x="1134" d="M82 416v256q0 115 41 205t111.5 144t157 81.5t183.5 27.5q214 0 349 -111.5t135 -309.5v-263h-584v-57q0 -119 174 -119q140 0 316 56l71 -254q-205 -97 -446 -97q-101 0 -190.5 27t-161.5 80t-114 139t-42 195zM225 1548h373l170 -334h-281zM475 657h211v93q0 52 -28 80 t-78 28q-47 0 -76 -29.5t-29 -78.5v-93z" />
<glyph unicode="&#xe9;" horiz-adv-x="1134" d="M82 416v256q0 115 41 205t111.5 144t157 81.5t183.5 27.5q214 0 349 -111.5t135 -309.5v-263h-584v-57q0 -119 174 -119q140 0 316 56l71 -254q-205 -97 -446 -97q-101 0 -190.5 27t-161.5 80t-114 139t-42 195zM422 1214l170 334h373l-263 -334h-280zM475 657h211v93 q0 52 -28 80t-78 28q-47 0 -76 -29.5t-29 -78.5v-93z" />
<glyph unicode="&#xea;" horiz-adv-x="1134" d="M82 416v256q0 115 41 205t111.5 144t157 81.5t183.5 27.5q214 0 349 -111.5t135 -309.5v-263h-584v-57q0 -119 174 -119q140 0 316 56l71 -254q-205 -97 -446 -97q-101 0 -190.5 27t-161.5 80t-114 139t-42 195zM197 1217l249 352h275l248 -352h-291l-103 161l-102 -161 h-276zM475 657h211v93q0 52 -28 80t-78 28q-47 0 -76 -29.5t-29 -78.5v-93z" />
<glyph unicode="&#xeb;" horiz-adv-x="1134" d="M82 416v256q0 115 41 205t111.5 144t157 81.5t183.5 27.5q214 0 349 -111.5t135 -309.5v-263h-584v-57q0 -119 174 -119q140 0 316 56l71 -254q-205 -97 -446 -97q-101 0 -190.5 27t-161.5 80t-114 139t-42 195zM211 1208v334h317v-334h-317zM475 657h211v93q0 52 -28 80 t-78 28q-47 0 -76 -29.5t-29 -78.5v-93zM645 1208v334h318v-334h-318z" />
<glyph unicode="&#xec;" horiz-adv-x="587" d="M-111 1548h373l170 -334h-280zM98 0v1106h391v-1106h-391z" />
<glyph unicode="&#xed;" horiz-adv-x="587" d="M98 0v1106h391v-1106h-391zM141 1214l170 334h373l-262 -334h-281z" />
<glyph unicode="&#xee;" horiz-adv-x="587" d="M-111 1217l250 352h275l248 -352h-291l-103 161l-102 -161h-277zM98 0v1106h391v-1106h-391z" />
<glyph unicode="&#xef;" horiz-adv-x="587" d="M-96 1208v334h317v-334h-317zM98 0v1106h391v-1106h-391zM338 1208v334h317v-334h-317z" />
<glyph unicode="&#xf0;" horiz-adv-x="1163" d="M82 393v203q0 177 94.5 294t259.5 126l35 2l-82 112l-180 -47l-98 181l155 39l-84 131l381 90l82 -123l195 51l98 -178l-172 -47l229 -330q86 -117 86 -254v-248q0 -89 -29 -161t-77.5 -119.5t-113.5 -79.5t-134.5 -46t-144.5 -14q-77 0 -146.5 12.5t-135.5 43t-113.5 77 t-76 119.5t-28.5 166zM477 373q0 -111 107 -111q52 0 77 32t25 83v285q0 53 -29 86.5t-75 33.5q-52 0 -78.5 -35t-26.5 -90v-284z" />
<glyph unicode="&#xf1;" horiz-adv-x="1196" d="M98 0v1106h379v-150h4q136 174 320 174q55 0 108 -20t97.5 -57t72 -97.5t27.5 -134.5v-821h-391v690q0 137 -115 137q-46 0 -78.5 -41t-32.5 -114v-672h-391zM203 1235q19 134 87 223.5t179 89.5q58 0 168 -35.5t166 -35.5q35 0 55.5 25t40.5 77l162 -43q-7 -61 -25 -113 t-48 -96.5t-77.5 -70t-107.5 -25.5q-56 0 -163 34.5t-161 34.5q-40 0 -59 -22t-35 -80z" />
<glyph unicode="&#xf2;" horiz-adv-x="1163" d="M82 393v301q0 109 42 195t113 137.5t157.5 77.5t183.5 26q76 0 146 -13.5t136 -46t114.5 -80.5t77.5 -122t29 -166v-307q0 -89 -29 -161t-77.5 -119.5t-113.5 -79.5t-134.5 -46t-144.5 -14q-77 0 -146.5 12.5t-135.5 43t-113.5 77t-76 119.5t-28.5 166zM213 1548h373 l170 -334h-281zM477 373q0 -111 107 -111q52 0 77 32t25 83v344q0 53 -29 87t-75 34q-52 0 -78.5 -35t-26.5 -90v-344z" />
<glyph unicode="&#xf3;" horiz-adv-x="1163" d="M82 393v301q0 109 42 195t113 137.5t157.5 77.5t183.5 26q76 0 146 -13.5t136 -46t114.5 -80.5t77.5 -122t29 -166v-307q0 -89 -29 -161t-77.5 -119.5t-113.5 -79.5t-134.5 -46t-144.5 -14q-77 0 -146.5 12.5t-135.5 43t-113.5 77t-76 119.5t-28.5 166zM432 1214l170 334 h373l-262 -334h-281zM477 373q0 -111 107 -111q52 0 77 32t25 83v344q0 53 -29 87t-75 34q-52 0 -78.5 -35t-26.5 -90v-344z" />
<glyph unicode="&#xf4;" horiz-adv-x="1163" d="M82 393v301q0 109 42 195t113 137.5t157.5 77.5t183.5 26q76 0 146 -13.5t136 -46t114.5 -80.5t77.5 -122t29 -166v-307q0 -89 -29 -161t-77.5 -119.5t-113.5 -79.5t-134.5 -46t-144.5 -14q-77 0 -146.5 12.5t-135.5 43t-113.5 77t-76 119.5t-28.5 166zM197 1217l249 352 h275l248 -352h-291l-103 161l-102 -161h-276zM477 373q0 -111 107 -111q52 0 77 32t25 83v344q0 53 -29 87t-75 34q-52 0 -78.5 -35t-26.5 -90v-344z" />
<glyph unicode="&#xf5;" horiz-adv-x="1163" d="M82 393v301q0 109 42 195t113 137.5t157.5 77.5t183.5 26q76 0 146 -13.5t136 -46t114.5 -80.5t77.5 -122t29 -166v-307q0 -89 -29 -161t-77.5 -119.5t-113.5 -79.5t-134.5 -46t-144.5 -14q-77 0 -146.5 12.5t-135.5 43t-113.5 77t-76 119.5t-28.5 166zM150 1235 q19 134 87 223.5t179 89.5q58 0 168 -35.5t166 -35.5q35 0 55.5 25t40.5 77l162 -43q-7 -61 -25 -113t-48 -96.5t-77.5 -70t-107.5 -25.5q-56 0 -163 34.5t-161 34.5q-40 0 -59 -22t-35 -80zM477 373q0 -111 107 -111q52 0 77 32t25 83v344q0 53 -29 87t-75 34 q-52 0 -78.5 -35t-26.5 -90v-344z" />
<glyph unicode="&#xf6;" horiz-adv-x="1163" d="M82 393v301q0 109 42 195t113 137.5t157.5 77.5t183.5 26q76 0 146 -13.5t136 -46t114.5 -80.5t77.5 -122t29 -166v-307q0 -89 -29 -161t-77.5 -119.5t-113.5 -79.5t-134.5 -46t-144.5 -14q-77 0 -146.5 12.5t-135.5 43t-113.5 77t-76 119.5t-28.5 166zM203 1208v334h317 v-334h-317zM477 373q0 -111 107 -111q52 0 77 32t25 83v344q0 53 -29 87t-75 34q-52 0 -78.5 -35t-26.5 -90v-344zM637 1208v334h317v-334h-317z" />
<glyph unicode="&#xf7;" d="M104 539v233h897v-233h-897zM397 125v305h312v-305h-312zM397 872v302h312v-302h-312z" />
<glyph unicode="&#xf8;" horiz-adv-x="1163" d="M82 393v301q0 109 42 195t113 137.5t157.5 77.5t183.5 26q108 0 210 -30l80 153l119 -57l-78 -154q172 -114 172 -340v-307q0 -89 -29 -161t-77.5 -119.5t-113.5 -79.5t-134.5 -46t-144.5 -14q-106 0 -205 27l-80 -156l-119 58l76 149q-172 106 -172 340zM477 487 l168 332q-26 23 -63 23q-52 0 -78.5 -35t-26.5 -90v-230zM518 279q27 -17 66 -17q52 0 77 32t25 83v229z" />
<glyph unicode="&#xf9;" horiz-adv-x="1196" d="M90 285v821h391v-690q0 -140 115 -140q45 0 78 42t33 114v674h391v-1106h-363l-12 168h-4q-55 -85 -142 -139t-182 -54q-55 0 -108 20t-97.5 57.5t-72 98t-27.5 134.5zM201 1548h372l170 -334h-280z" />
<glyph unicode="&#xfa;" horiz-adv-x="1196" d="M90 285v821h391v-690q0 -140 115 -140q45 0 78 42t33 114v674h391v-1106h-363l-12 168h-4q-55 -85 -142 -139t-182 -54q-55 0 -108 20t-97.5 57.5t-72 98t-27.5 134.5zM479 1214l170 334h373l-262 -334h-281z" />
<glyph unicode="&#xfb;" horiz-adv-x="1196" d="M90 285v821h391v-690q0 -140 115 -140q45 0 78 42t33 114v674h391v-1106h-363l-12 168h-4q-55 -85 -142 -139t-182 -54q-55 0 -108 20t-97.5 57.5t-72 98t-27.5 134.5zM211 1217l250 352h274l248 -352h-291l-102 161l-103 -161h-276z" />
<glyph unicode="&#xfc;" horiz-adv-x="1196" d="M90 285v821h391v-690q0 -140 115 -140q45 0 78 42t33 114v674h391v-1106h-363l-12 168h-4q-55 -85 -142 -139t-182 -54q-55 0 -108 20t-97.5 57.5t-72 98t-27.5 134.5zM219 1208v334h318v-334h-318zM653 1208v334h318v-334h-318z" />
<glyph unicode="&#xfd;" horiz-adv-x="1091" d="M0 1106h416l174 -553h6l143 553h353l-351 -1124q-61 -188 -157 -277.5t-262 -89.5q-106 0 -220 29l54 313q99 -23 166 -23q46 0 65 64l8 33zM451 1214l170 334h372l-262 -334h-280z" />
<glyph unicode="&#xfe;" horiz-adv-x="1187" d="M98 -360v1820h391v-493h5q54 71 132 117t152 46q328 0 328 -335v-482q0 -145 -99.5 -241.5t-263.5 -96.5q-69 0 -146 38.5t-103 99.5h-5v-473h-391zM489 379q0 -63 36 -92t79 -29q111 0 111 113v348q0 57 -30.5 84.5t-76.5 27.5q-50 0 -84.5 -38t-34.5 -121v-293z" />
<glyph unicode="&#xff;" horiz-adv-x="1091" d="M0 1106h416l174 -553h6l143 553h353l-351 -1124q-61 -188 -157 -277.5t-262 -89.5q-106 0 -220 29l54 313q99 -23 166 -23q46 0 65 64l8 33zM199 1208v334h317v-334h-317zM633 1208v334h317v-334h-317z" />
<glyph unicode="&#x152;" horiz-adv-x="1931" d="M86 496v465q0 131 40 231.5t112.5 163.5t169.5 95t215 32q54 0 114 -17t99 -45v39h1013v-334h-592v-227h469v-334h-469v-229h592v-336h-1013v35q-40 -26 -97.5 -42t-111.5 -16q-122 0 -217.5 28t-169.5 87.5t-114 161.5t-40 242zM512 494q0 -84 41.5 -129.5t122.5 -45.5 q74 0 117 45t43 123v500q0 78 -46 116t-118 38q-160 0 -160 -166v-481z" />
<glyph unicode="&#x153;" horiz-adv-x="1738" d="M82 393v301q0 109 42 195t113 137.5t157.5 77.5t183.5 26q180 0 309 -77q122 77 291 77q214 0 349.5 -111.5t135.5 -309.5v-263h-586v-57q0 -48 27.5 -75t67 -35.5t98.5 -8.5q63 0 150 18t149 38l71 -254q-97 -46 -218 -71.5t-240 -25.5q-168 0 -295 78q-67 -36 -153 -57 t-165 -21q-77 0 -145.5 12.5t-132 43t-109 77t-73 119.5t-27.5 166zM477 373q0 -111 107 -111q52 0 77 32t25 83v344q0 53 -29 87t-75 34q-52 0 -78.5 -35t-26.5 -90v-344zM1077 657h213v93q0 52 -29 80t-79 28q-47 0 -76 -29.5t-29 -78.5v-93z" />
<glyph unicode="&#x178;" horiz-adv-x="1300" d="M16 1460h447l217 -528l209 528h395l-422 -899v-561h-424v563zM274 1548v334h318v-334h-318zM709 1548v334h317v-334h-317z" />
<glyph unicode="&#x2c6;" horiz-adv-x="804" d="M25 1217l249 352h275l248 -352h-291l-103 161l-102 -161h-276z" />
<glyph unicode="&#x2dc;" horiz-adv-x="952" d="M57 1235q12 86 43.5 154.5t89.5 113.5t134 45q58 0 167.5 -35.5t165.5 -35.5q35 0 56 25t41 77l161 -43q-7 -61 -25 -113t-48 -96.5t-77.5 -70t-107.5 -25.5q-56 0 -162.5 34.5t-160.5 34.5q-40 0 -59 -22t-35 -80z" />
<glyph unicode="&#x2000;" horiz-adv-x="959" />
<glyph unicode="&#x2001;" horiz-adv-x="1919" />
<glyph unicode="&#x2002;" horiz-adv-x="959" />
<glyph unicode="&#x2003;" horiz-adv-x="1919" />
<glyph unicode="&#x2004;" horiz-adv-x="639" />
<glyph unicode="&#x2005;" horiz-adv-x="479" />
<glyph unicode="&#x2006;" horiz-adv-x="319" />
<glyph unicode="&#x2007;" horiz-adv-x="319" />
<glyph unicode="&#x2008;" horiz-adv-x="239" />
<glyph unicode="&#x2009;" horiz-adv-x="383" />
<glyph unicode="&#x200a;" horiz-adv-x="106" />
<glyph unicode="&#x2010;" horiz-adv-x="684" d="M74 492v278h536v-278h-536z" />
<glyph unicode="&#x2011;" horiz-adv-x="684" d="M74 492v278h536v-278h-536z" />
<glyph unicode="&#x2012;" horiz-adv-x="684" d="M74 492v278h536v-278h-536z" />
<glyph unicode="&#x2013;" horiz-adv-x="944" d="M0 528v226h944v-226h-944z" />
<glyph unicode="&#x2014;" horiz-adv-x="1595" d="M0 528v226h1595v-226h-1595z" />
<glyph unicode="&#x2018;" horiz-adv-x="540" d="M90 797v338l119 325h182l-72 -303h132v-360h-361z" />
<glyph unicode="&#x2019;" horiz-adv-x="540" d="M90 1100v360h361v-338l-119 -325h-182l71 303h-131z" />
<glyph unicode="&#x201a;" horiz-adv-x="540" d="M90 23v360h361v-338l-119 -326h-182l71 304h-131z" />
<glyph unicode="&#x201c;" horiz-adv-x="1024" d="M90 797v338l119 325h182l-72 -303h132v-360h-361zM573 797v338l119 325h182l-71 -303h131v-360h-361z" />
<glyph unicode="&#x201d;" horiz-adv-x="1024" d="M90 1100v360h361v-338l-119 -325h-182l71 303h-131zM573 1100v360h361v-338l-119 -325h-182l72 303h-132z" />
<glyph unicode="&#x201e;" horiz-adv-x="1024" d="M90 23v360h361v-338l-119 -326h-182l71 304h-131zM573 23v360h361v-338l-119 -326h-182l72 304h-132z" />
<glyph unicode="&#x2022;" horiz-adv-x="929" d="M111 739q0 149 104 253t252 104q146 0 249 -104t103 -253q0 -147 -103 -251.5t-249 -104.5q-147 0 -251.5 104.5t-104.5 251.5z" />
<glyph unicode="&#x2026;" horiz-adv-x="1519" d="M90 0v383h361v-383h-361zM580 0v383h360v-383h-360zM1069 0v383h361v-383h-361z" />
<glyph unicode="&#x202f;" horiz-adv-x="383" />
<glyph unicode="&#x2039;" horiz-adv-x="602" d="M45 549l320 391l186 -100l-113 -291l119 -291l-192 -96z" />
<glyph unicode="&#x203a;" horiz-adv-x="604" d="M45 844l195 96l319 -387l-319 -391l-191 100l113 291z" />
<glyph unicode="&#x205f;" horiz-adv-x="479" />
<glyph unicode="&#x20ac;" horiz-adv-x="1384" d="M74 494v180h131v104h-131v178h131v62q0 141 81.5 249.5t207.5 163t270 54.5q104 0 198.5 -26t174 -77.5t127 -140t47.5 -203.5v-37h-383v35q0 70 -46 109t-112 39q-58 0 -98.5 -40t-40.5 -93v-95h278v-178h-278v-104h278v-180h-278v-72q0 -69 43 -107.5t112 -38.5 q63 0 102.5 38.5t39.5 109.5v20h383v-22q0 -114 -46.5 -202t-125.5 -140t-173.5 -78.5t-199.5 -26.5q-89 0 -169.5 17t-152.5 54t-125 90.5t-83.5 132t-30.5 173.5v52h-131z" />
<glyph unicode="&#x2122;" horiz-adv-x="1370" d="M78 1292v168h506v-168h-154v-475h-199v475h-153zM639 817v643h242l65 -237l64 237h241v-643h-180v334l-61 -229h-131l-62 227v-332h-178z" />
<glyph unicode="&#x25fc;" d="M0 0v1106h1106v-1106h-1106z" />
</font>
</defs>
</svg>
